<?xml version="1.0" encoding="iso-8859-1"?>
<!-- Generator: Adobe Illustrator 18.0.0, SVG Export Plug-In . SVG Version: 6.00 Build 0)  -->
<!DOCTYPE svg PUBLIC "-//W3C//DTD SVG 1.1//EN" "http://www.w3.org/Graphics/SVG/1.1/DTD/svg11.dtd">
<svg version="1.1" id="Capa_1" xmlns="http://www.w3.org/2000/svg" xmlns:xlink="http://www.w3.org/1999/xlink" x="0px" y="0px"
	 viewBox="0 0 463.383 463.383" style="enable-background:new 0 0 463.383 463.383;" xml:space="preserve">
<g>
	<path d="M348.081,155.458c0,5.523,4.477,10,10,10s10-4.477,10-10c0-19.265-13.296-35.477-31.191-39.958v-5.685
		c0-5.523-4.477-10-10-10s-10,4.477-10,10v5.685c-17.896,4.481-31.191,20.693-31.191,39.958s13.296,35.477,31.191,39.958v41.1
		c-6.655-3.578-11.191-10.605-11.191-18.675c0-5.523-4.477-10-10-10s-10,4.477-10,10c0,19.265,13.296,35.477,31.191,39.958v5.685
		c0,5.523,4.477,10,10,10s10-4.477,10-10v-5.685c17.896-4.481,31.191-20.693,31.191-39.958s-13.296-35.477-31.191-39.958v-41.1
		C343.544,140.361,348.081,147.388,348.081,155.458z M305.698,155.458c0-8.07,4.537-15.097,11.191-18.675v37.35
		C310.235,170.555,305.698,163.528,305.698,155.458z M348.081,217.841c0,8.07-4.537,15.097-11.191,18.675v-37.35
		C343.544,202.744,348.081,209.771,348.081,217.841z"/>
	<path d="M326.89,50.155c-63.722,0-117.379,43.894-132.339,103.032c-18.038-8.502-37.751-12.949-58.051-12.949
		C61.233,140.239,0,201.468,0,276.728c0,75.266,61.233,136.5,136.5,136.5c34.557,0,67.528-12.94,92.84-36.437
		c19.522-18.122,33.132-41.236,39.519-66.618c17.621,8.312,37.291,12.969,58.03,12.969c75.263,0,136.494-61.231,136.494-136.494
		C463.383,111.386,402.152,50.155,326.89,50.155z M208.93,354.805c-19.745,18.329-45.468,28.423-72.43,28.423
		c-58.724,0-106.5-47.776-106.5-106.5c0-58.719,47.776-106.49,106.5-106.49c19.148,0,37.628,5.041,53.918,14.644
		c-0.008,0.589-0.022,1.176-0.022,1.767c0,43.073,20.061,81.544,51.324,106.578C238.06,316.773,226.598,338.403,208.93,354.805z
		 M326.89,293.143c-58.721,0-106.494-47.773-106.494-106.494c0-58.721,47.773-106.494,106.494-106.494
		c58.721,0,106.494,47.773,106.494,106.494C433.383,245.37,385.61,293.143,326.89,293.143z"/>
	<path d="M183.38,199.177c-4.726-2.855-10.875-1.342-13.731,3.385l-33.15,54.84l-33.15-54.84c-2.857-4.727-9.005-6.241-13.731-3.385
		c-4.726,2.857-6.242,9.005-3.385,13.731l35.256,58.323h-7.489c-5.523,0-10,4.477-10,10s4.477,10,10,10h12.499v5.499h-12.499
		c-5.523,0-10,4.477-10,10s4.477,10,10,10h12.499v36.835c0,5.523,4.477,10,10,10s10-4.477,10-10V316.73h12.499
		c5.523,0,10-4.477,10-10s-4.477-10-10-10h-12.499v-5.499h12.499c5.523,0,10-4.477,10-10s-4.477-10-10-10h-7.489l35.256-58.323
		C189.622,208.182,188.106,202.034,183.38,199.177z"/>
</g>
<g>
</g>
<g>
</g>
<g>
</g>
<g>
</g>
<g>
</g>
<g>
</g>
<g>
</g>
<g>
</g>
<g>
</g>
<g>
</g>
<g>
</g>
<g>
</g>
<g>
</g>
<g>
</g>
<g>
</g>
</svg>
